<mxfile host="app.diagrams.net" modified="2023-05-23T15:10:20.821Z" agent="Mozilla/5.0 (Windows NT 10.0; Win64; x64) AppleWebKit/537.36 (KHTML, like Gecko) Chrome/113.0.0.0 Safari/537.36" etag="WE61_7_uHPD8azE_GgN3" version="21.3.2" type="device">
  <diagram id="R2lEEEUBdFMjLlhIrx00" name="Page-1">
    <mxGraphModel dx="2045" dy="1768" grid="1" gridSize="59" guides="1" tooltips="1" connect="0" arrows="1" fold="1" page="1" pageScale="1" pageWidth="850" pageHeight="1100" background="#ffffff" math="0" shadow="0" extFonts="Permanent Marker^https://fonts.googleapis.com/css?family=Permanent+Marker">
      <root>
        <mxCell id="0" />
        <mxCell id="1" parent="0" />
        <mxCell id="I1Eal8p1mosymjfn8M6k-5" value="&lt;font size=&quot;3&quot;&gt;Bank&lt;/font&gt;" style="rounded=0;whiteSpace=wrap;html=1;" parent="1" vertex="1">
          <mxGeometry x="194" y="130" width="120" height="60" as="geometry" />
        </mxCell>
        <mxCell id="I1Eal8p1mosymjfn8M6k-6" value="Name" style="ellipse;whiteSpace=wrap;html=1;" parent="1" vertex="1">
          <mxGeometry x="204" y="10" width="100" height="50" as="geometry" />
        </mxCell>
        <mxCell id="I1Eal8p1mosymjfn8M6k-8" value="" style="endArrow=none;html=1;rounded=0;exitX=0.5;exitY=0;exitDx=0;exitDy=0;" parent="1" source="I1Eal8p1mosymjfn8M6k-5" target="I1Eal8p1mosymjfn8M6k-6" edge="1">
          <mxGeometry width="50" height="50" relative="1" as="geometry">
            <mxPoint x="220" y="130" as="sourcePoint" />
            <mxPoint x="270" y="80" as="targetPoint" />
          </mxGeometry>
        </mxCell>
        <mxCell id="I1Eal8p1mosymjfn8M6k-11" value="" style="endArrow=none;html=1;rounded=0;entryX=0.5;entryY=1;entryDx=0;entryDy=0;exitX=0.5;exitY=0;exitDx=0;exitDy=0;" parent="1" source="I1Eal8p1mosymjfn8M6k-5" target="I1Eal8p1mosymjfn8M6k-14" edge="1">
          <mxGeometry width="50" height="50" relative="1" as="geometry">
            <mxPoint x="250" y="120" as="sourcePoint" />
            <mxPoint x="310" y="80" as="targetPoint" />
          </mxGeometry>
        </mxCell>
        <mxCell id="I1Eal8p1mosymjfn8M6k-14" value="Address" style="ellipse;whiteSpace=wrap;html=1;" parent="1" vertex="1">
          <mxGeometry x="310" y="10" width="100" height="50" as="geometry" />
        </mxCell>
        <mxCell id="I1Eal8p1mosymjfn8M6k-15" value="City" style="ellipse;whiteSpace=wrap;html=1;" parent="1" vertex="1">
          <mxGeometry x="340" y="-110" width="100" height="50" as="geometry" />
        </mxCell>
        <mxCell id="I1Eal8p1mosymjfn8M6k-17" value="Street" style="ellipse;whiteSpace=wrap;html=1;" parent="1" vertex="1">
          <mxGeometry x="470" y="-100" width="100" height="50" as="geometry" />
        </mxCell>
        <mxCell id="I1Eal8p1mosymjfn8M6k-18" value="Country" style="ellipse;whiteSpace=wrap;html=1;" parent="1" vertex="1">
          <mxGeometry x="480" y="-30" width="100" height="50" as="geometry" />
        </mxCell>
        <mxCell id="I1Eal8p1mosymjfn8M6k-22" value="" style="endArrow=none;html=1;rounded=0;entryX=0.29;entryY=0.94;entryDx=0;entryDy=0;entryPerimeter=0;" parent="1" source="I1Eal8p1mosymjfn8M6k-14" target="I1Eal8p1mosymjfn8M6k-15" edge="1">
          <mxGeometry width="50" height="50" relative="1" as="geometry">
            <mxPoint x="360" y="8" as="sourcePoint" />
            <mxPoint x="389" y="-60" as="targetPoint" />
          </mxGeometry>
        </mxCell>
        <mxCell id="I1Eal8p1mosymjfn8M6k-23" value="" style="endArrow=none;html=1;rounded=0;exitX=0.57;exitY=-0.02;exitDx=0;exitDy=0;entryX=0;entryY=1;entryDx=0;entryDy=0;exitPerimeter=0;" parent="1" source="I1Eal8p1mosymjfn8M6k-14" target="I1Eal8p1mosymjfn8M6k-17" edge="1">
          <mxGeometry width="50" height="50" relative="1" as="geometry">
            <mxPoint x="396" y="17" as="sourcePoint" />
            <mxPoint x="425" y="-51" as="targetPoint" />
          </mxGeometry>
        </mxCell>
        <mxCell id="I1Eal8p1mosymjfn8M6k-24" value="" style="endArrow=none;html=1;rounded=0;exitX=0.59;exitY=0.02;exitDx=0;exitDy=0;entryX=0;entryY=0.5;entryDx=0;entryDy=0;exitPerimeter=0;" parent="1" source="I1Eal8p1mosymjfn8M6k-14" target="I1Eal8p1mosymjfn8M6k-18" edge="1">
          <mxGeometry width="50" height="50" relative="1" as="geometry">
            <mxPoint x="396" y="50" as="sourcePoint" />
            <mxPoint x="425" y="-18" as="targetPoint" />
          </mxGeometry>
        </mxCell>
        <mxCell id="I1Eal8p1mosymjfn8M6k-26" value="&lt;font size=&quot;3&quot;&gt;Branch&lt;/font&gt;" style="rounded=0;whiteSpace=wrap;html=1;" parent="1" vertex="1">
          <mxGeometry x="194" y="430" width="120" height="60" as="geometry" />
        </mxCell>
        <mxCell id="I1Eal8p1mosymjfn8M6k-31" value="" style="endArrow=none;html=1;rounded=0;entryX=0.02;entryY=0.68;entryDx=0;entryDy=0;exitX=1;exitY=0.5;exitDx=0;exitDy=0;entryPerimeter=0;" parent="1" source="I1Eal8p1mosymjfn8M6k-26" target="I1Eal8p1mosymjfn8M6k-34" edge="1">
          <mxGeometry width="50" height="50" relative="1" as="geometry">
            <mxPoint x="194" y="420" as="sourcePoint" />
            <mxPoint x="254" y="380" as="targetPoint" />
          </mxGeometry>
        </mxCell>
        <mxCell id="I1Eal8p1mosymjfn8M6k-34" value="Address" style="ellipse;whiteSpace=wrap;html=1;" parent="1" vertex="1">
          <mxGeometry x="344" y="390" width="100" height="50" as="geometry" />
        </mxCell>
        <mxCell id="I1Eal8p1mosymjfn8M6k-35" value="City" style="ellipse;whiteSpace=wrap;html=1;" parent="1" vertex="1">
          <mxGeometry x="384" y="230" width="100" height="50" as="geometry" />
        </mxCell>
        <mxCell id="I1Eal8p1mosymjfn8M6k-37" value="Street" style="ellipse;whiteSpace=wrap;html=1;" parent="1" vertex="1">
          <mxGeometry x="494" y="270" width="100" height="50" as="geometry" />
        </mxCell>
        <mxCell id="I1Eal8p1mosymjfn8M6k-38" value="Country" style="ellipse;whiteSpace=wrap;html=1;" parent="1" vertex="1">
          <mxGeometry x="534" y="340" width="100" height="50" as="geometry" />
        </mxCell>
        <mxCell id="I1Eal8p1mosymjfn8M6k-39" value="" style="endArrow=none;html=1;rounded=0;entryX=0.5;entryY=1;entryDx=0;entryDy=0;exitX=0.5;exitY=0;exitDx=0;exitDy=0;" parent="1" source="I1Eal8p1mosymjfn8M6k-34" target="I1Eal8p1mosymjfn8M6k-35" edge="1">
          <mxGeometry width="50" height="50" relative="1" as="geometry">
            <mxPoint x="512.907106700826" y="470.6230246018149" as="sourcePoint" />
            <mxPoint x="443" y="317" as="targetPoint" />
            <Array as="points" />
          </mxGeometry>
        </mxCell>
        <mxCell id="I1Eal8p1mosymjfn8M6k-40" value="" style="endArrow=none;html=1;rounded=0;" parent="1" source="I1Eal8p1mosymjfn8M6k-34" target="I1Eal8p1mosymjfn8M6k-37" edge="1">
          <mxGeometry width="50" height="50" relative="1" as="geometry">
            <mxPoint x="531" y="469" as="sourcePoint" />
            <mxPoint x="558.6446609406726" y="322.67766952966394" as="targetPoint" />
          </mxGeometry>
        </mxCell>
        <mxCell id="I1Eal8p1mosymjfn8M6k-41" value="" style="endArrow=none;html=1;rounded=0;exitX=0.93;exitY=0.22;exitDx=0;exitDy=0;entryX=0;entryY=0.5;entryDx=0;entryDy=0;exitPerimeter=0;" parent="1" source="I1Eal8p1mosymjfn8M6k-34" target="I1Eal8p1mosymjfn8M6k-38" edge="1">
          <mxGeometry width="50" height="50" relative="1" as="geometry">
            <mxPoint x="533" y="471" as="sourcePoint" />
            <mxPoint x="499" y="362" as="targetPoint" />
          </mxGeometry>
        </mxCell>
        <mxCell id="I1Eal8p1mosymjfn8M6k-43" value="" style="endArrow=none;html=1;rounded=0;" parent="1" source="I1Eal8p1mosymjfn8M6k-26" target="I1Eal8p1mosymjfn8M6k-44" edge="1">
          <mxGeometry width="50" height="50" relative="1" as="geometry">
            <mxPoint x="214" y="420" as="sourcePoint" />
            <mxPoint x="264" y="370" as="targetPoint" />
          </mxGeometry>
        </mxCell>
        <mxCell id="I1Eal8p1mosymjfn8M6k-44" value="&lt;u&gt;BranchNumber&lt;/u&gt;" style="ellipse;whiteSpace=wrap;html=1;" parent="1" vertex="1">
          <mxGeometry x="344" y="490" width="120" height="50" as="geometry" />
        </mxCell>
        <mxCell id="I1Eal8p1mosymjfn8M6k-47" value="belongs to" style="rhombus;whiteSpace=wrap;html=1;rounded=0;" parent="1" vertex="1">
          <mxGeometry x="214" y="270" width="80" height="50" as="geometry" />
        </mxCell>
        <mxCell id="I1Eal8p1mosymjfn8M6k-50" value="" style="endArrow=none;html=1;rounded=0;exitX=0.5;exitY=0;exitDx=0;exitDy=0;shape=link;" parent="1" source="I1Eal8p1mosymjfn8M6k-47" target="I1Eal8p1mosymjfn8M6k-5" edge="1">
          <mxGeometry width="50" height="50" relative="1" as="geometry">
            <mxPoint x="220" y="300" as="sourcePoint" />
            <mxPoint x="260" y="190" as="targetPoint" />
          </mxGeometry>
        </mxCell>
        <mxCell id="I1Eal8p1mosymjfn8M6k-52" value="1" style="edgeLabel;html=1;align=center;verticalAlign=middle;resizable=0;points=[];" parent="I1Eal8p1mosymjfn8M6k-50" vertex="1" connectable="0">
          <mxGeometry x="0.2405" y="2" relative="1" as="geometry">
            <mxPoint x="2" as="offset" />
          </mxGeometry>
        </mxCell>
        <mxCell id="I1Eal8p1mosymjfn8M6k-51" value="" style="endArrow=none;html=1;rounded=0;entryX=0.5;entryY=1;entryDx=0;entryDy=0;shape=link;" parent="1" source="I1Eal8p1mosymjfn8M6k-26" target="I1Eal8p1mosymjfn8M6k-47" edge="1">
          <mxGeometry width="50" height="50" relative="1" as="geometry">
            <mxPoint x="120" y="400" as="sourcePoint" />
            <mxPoint x="160" y="290" as="targetPoint" />
          </mxGeometry>
        </mxCell>
        <mxCell id="I1Eal8p1mosymjfn8M6k-53" value="M" style="edgeLabel;html=1;align=center;verticalAlign=middle;resizable=0;points=[];" parent="I1Eal8p1mosymjfn8M6k-51" vertex="1" connectable="0">
          <mxGeometry x="-0.4528" relative="1" as="geometry">
            <mxPoint as="offset" />
          </mxGeometry>
        </mxCell>
        <mxCell id="I1Eal8p1mosymjfn8M6k-54" value="" style="endArrow=none;html=1;rounded=0;exitX=1;exitY=0.5;exitDx=0;exitDy=0;" parent="1" source="I1Eal8p1mosymjfn8M6k-55" target="I1Eal8p1mosymjfn8M6k-26" edge="1">
          <mxGeometry width="50" height="50" relative="1" as="geometry">
            <mxPoint x="60" y="460" as="sourcePoint" />
            <mxPoint x="140" y="450" as="targetPoint" />
          </mxGeometry>
        </mxCell>
        <mxCell id="I1Eal8p1mosymjfn8M6k-122" value="1" style="edgeLabel;html=1;align=center;verticalAlign=middle;resizable=0;points=[];" parent="I1Eal8p1mosymjfn8M6k-54" vertex="1" connectable="0">
          <mxGeometry x="0.6374" relative="1" as="geometry">
            <mxPoint as="offset" />
          </mxGeometry>
        </mxCell>
        <mxCell id="I1Eal8p1mosymjfn8M6k-55" value="has" style="rhombus;whiteSpace=wrap;html=1;" parent="1" vertex="1">
          <mxGeometry x="-10" y="430" width="90" height="60" as="geometry" />
        </mxCell>
        <mxCell id="I1Eal8p1mosymjfn8M6k-73" value="" style="endArrow=none;html=1;rounded=0;entryX=0.022;entryY=0.503;entryDx=0;entryDy=0;entryPerimeter=0;exitX=0.274;exitY=1.065;exitDx=0;exitDy=0;shape=link;exitPerimeter=0;" parent="1" target="I1Eal8p1mosymjfn8M6k-55" edge="1">
          <mxGeometry width="50" height="50" relative="1" as="geometry">
            <mxPoint x="-261.1199999999999" y="-106.09999999999991" as="sourcePoint" />
            <mxPoint x="-3.150000000000091" y="460.3600000000001" as="targetPoint" />
            <Array as="points">
              <mxPoint x="-261" y="-59" />
              <mxPoint x="-412" y="-59" />
              <mxPoint x="-412" y="177" />
              <mxPoint x="-412" y="460" />
            </Array>
          </mxGeometry>
        </mxCell>
        <mxCell id="I1Eal8p1mosymjfn8M6k-123" value="M" style="edgeLabel;html=1;align=center;verticalAlign=middle;resizable=0;points=[];" parent="I1Eal8p1mosymjfn8M6k-73" vertex="1" connectable="0">
          <mxGeometry x="-0.7267" y="1" relative="1" as="geometry">
            <mxPoint x="339" y="518" as="offset" />
          </mxGeometry>
        </mxCell>
        <mxCell id="I1Eal8p1mosymjfn8M6k-83" value="" style="endArrow=none;html=1;rounded=0;exitX=0.5;exitY=1;exitDx=0;exitDy=0;" parent="1" edge="1">
          <mxGeometry width="50" height="50" relative="1" as="geometry">
            <mxPoint x="-180" y="430" as="sourcePoint" />
            <mxPoint x="-180" y="430" as="targetPoint" />
          </mxGeometry>
        </mxCell>
        <mxCell id="I1Eal8p1mosymjfn8M6k-90" value="" style="endArrow=none;html=1;rounded=0;entryX=0.5;entryY=1;entryDx=0;entryDy=0;exitX=0.5;exitY=0;exitDx=0;exitDy=0;" parent="1" source="I1Eal8p1mosymjfn8M6k-198" target="I1Eal8p1mosymjfn8M6k-91" edge="1">
          <mxGeometry width="50" height="50" relative="1" as="geometry">
            <mxPoint x="-180" y="80" as="sourcePoint" />
            <mxPoint x="-200" y="10" as="targetPoint" />
          </mxGeometry>
        </mxCell>
        <mxCell id="I1Eal8p1mosymjfn8M6k-91" value="LoanAmount" style="ellipse;whiteSpace=wrap;html=1;" parent="1" vertex="1">
          <mxGeometry x="-350" y="120" width="100" height="50" as="geometry" />
        </mxCell>
        <mxCell id="I1Eal8p1mosymjfn8M6k-92" value="LoanTyoe" style="ellipse;whiteSpace=wrap;html=1;" parent="1" vertex="1">
          <mxGeometry x="-350" y="180" width="100" height="50" as="geometry" />
        </mxCell>
        <mxCell id="I1Eal8p1mosymjfn8M6k-93" value="" style="endArrow=none;html=1;rounded=0;exitX=0.754;exitY=1.015;exitDx=0;exitDy=0;exitPerimeter=0;entryX=0.989;entryY=0.499;entryDx=0;entryDy=0;entryPerimeter=0;" parent="1" source="I1Eal8p1mosymjfn8M6k-198" target="I1Eal8p1mosymjfn8M6k-92" edge="1">
          <mxGeometry width="50" height="50" relative="1" as="geometry">
            <mxPoint x="-180" y="80" as="sourcePoint" />
            <mxPoint x="-236" y="177" as="targetPoint" />
          </mxGeometry>
        </mxCell>
        <mxCell id="I1Eal8p1mosymjfn8M6k-94" value="" style="endArrow=none;html=1;rounded=0;exitX=0.5;exitY=0;exitDx=0;exitDy=0;entryX=0.948;entryY=0.722;entryDx=0;entryDy=0;entryPerimeter=0;" parent="1" source="I1Eal8p1mosymjfn8M6k-198" target="I1Eal8p1mosymjfn8M6k-199" edge="1">
          <mxGeometry width="50" height="50" relative="1" as="geometry">
            <mxPoint x="-208.57142857142844" y="80" as="sourcePoint" />
            <mxPoint x="-250.8614241292821" y="26.8539319030383" as="targetPoint" />
          </mxGeometry>
        </mxCell>
        <mxCell id="I1Eal8p1mosymjfn8M6k-117" value="offer" style="shape=rhombus;perimeter=rhombusPerimeter;whiteSpace=wrap;html=1;align=center;" parent="1" vertex="1">
          <mxGeometry x="-2" y="210" width="120" height="60" as="geometry" />
        </mxCell>
        <mxCell id="I1Eal8p1mosymjfn8M6k-119" value="" style="endArrow=none;html=1;rounded=0;exitX=1;exitY=0.5;exitDx=0;exitDy=0;shape=link;entryX=0.025;entryY=0.49;entryDx=0;entryDy=0;entryPerimeter=0;" parent="1" source="I1Eal8p1mosymjfn8M6k-198" target="I1Eal8p1mosymjfn8M6k-117" edge="1">
          <mxGeometry relative="1" as="geometry">
            <mxPoint x="-120" y="110" as="sourcePoint" />
            <mxPoint x="7.238805970149315" y="183.88059701492512" as="targetPoint" />
            <Array as="points">
              <mxPoint y="145" />
            </Array>
          </mxGeometry>
        </mxCell>
        <mxCell id="I1Eal8p1mosymjfn8M6k-120" value="&lt;font style=&quot;font-size: 14px;&quot;&gt;M&lt;/font&gt;" style="edgeLabel;html=1;align=center;verticalAlign=middle;resizable=0;points=[];" parent="I1Eal8p1mosymjfn8M6k-119" vertex="1" connectable="0">
          <mxGeometry x="-0.7873" y="-1" relative="1" as="geometry">
            <mxPoint as="offset" />
          </mxGeometry>
        </mxCell>
        <mxCell id="I1Eal8p1mosymjfn8M6k-127" value="Hiring" style="rhombus;whiteSpace=wrap;html=1;" parent="1" vertex="1">
          <mxGeometry x="104" y="5" width="90" height="60" as="geometry" />
        </mxCell>
        <mxCell id="I1Eal8p1mosymjfn8M6k-166" value="Account" style="whiteSpace=wrap;html=1;align=center;" parent="1" vertex="1">
          <mxGeometry x="-250" y="620" width="100" height="40" as="geometry" />
        </mxCell>
        <mxCell id="I1Eal8p1mosymjfn8M6k-168" value="Balance" style="ellipse;whiteSpace=wrap;html=1;align=center;" parent="1" vertex="1">
          <mxGeometry x="-150" y="690" width="100" height="40" as="geometry" />
        </mxCell>
        <mxCell id="I1Eal8p1mosymjfn8M6k-169" value="&lt;u&gt;AccountNumber&lt;/u&gt;" style="ellipse;whiteSpace=wrap;html=1;align=center;" parent="1" vertex="1">
          <mxGeometry x="-240" y="715" width="100" height="40" as="geometry" />
        </mxCell>
        <mxCell id="I1Eal8p1mosymjfn8M6k-170" value="Type" style="ellipse;whiteSpace=wrap;html=1;align=center;" parent="1" vertex="1">
          <mxGeometry x="-350" y="715" width="100" height="40" as="geometry" />
        </mxCell>
        <mxCell id="I1Eal8p1mosymjfn8M6k-173" value="" style="endArrow=none;html=1;rounded=0;exitX=0.325;exitY=0.008;exitDx=0;exitDy=0;exitPerimeter=0;entryX=0.64;entryY=1.075;entryDx=0;entryDy=0;entryPerimeter=0;" parent="1" source="I1Eal8p1mosymjfn8M6k-168" target="I1Eal8p1mosymjfn8M6k-166" edge="1">
          <mxGeometry width="50" height="50" relative="1" as="geometry">
            <mxPoint x="-160" y="1030" as="sourcePoint" />
            <mxPoint x="-250" y="960" as="targetPoint" />
          </mxGeometry>
        </mxCell>
        <mxCell id="I1Eal8p1mosymjfn8M6k-174" value="" style="endArrow=none;html=1;rounded=0;entryX=0.401;entryY=1.106;entryDx=0;entryDy=0;entryPerimeter=0;exitX=0.5;exitY=0;exitDx=0;exitDy=0;" parent="1" source="I1Eal8p1mosymjfn8M6k-169" target="I1Eal8p1mosymjfn8M6k-166" edge="1">
          <mxGeometry width="50" height="50" relative="1" as="geometry">
            <mxPoint x="-250" y="1020" as="sourcePoint" />
            <mxPoint x="-200" y="950" as="targetPoint" />
          </mxGeometry>
        </mxCell>
        <mxCell id="I1Eal8p1mosymjfn8M6k-178" value="" style="endArrow=none;html=1;rounded=0;entryX=0.17;entryY=1.025;entryDx=0;entryDy=0;entryPerimeter=0;exitX=0.61;exitY=0.075;exitDx=0;exitDy=0;exitPerimeter=0;" parent="1" source="I1Eal8p1mosymjfn8M6k-170" target="I1Eal8p1mosymjfn8M6k-166" edge="1">
          <mxGeometry width="50" height="50" relative="1" as="geometry">
            <mxPoint x="-325" y="1000" as="sourcePoint" />
            <mxPoint x="-250" y="960" as="targetPoint" />
          </mxGeometry>
        </mxCell>
        <mxCell id="I1Eal8p1mosymjfn8M6k-183" style="edgeStyle=orthogonalEdgeStyle;rounded=0;orthogonalLoop=1;jettySize=auto;html=1;endArrow=none;endFill=0;entryX=0.25;entryY=1;entryDx=0;entryDy=0;exitX=0.5;exitY=0;exitDx=0;exitDy=0;" parent="1" source="I1Eal8p1mosymjfn8M6k-180" target="I1Eal8p1mosymjfn8M6k-26" edge="1">
          <mxGeometry relative="1" as="geometry">
            <mxPoint x="250" y="510" as="targetPoint" />
            <Array as="points">
              <mxPoint x="80" y="540" />
              <mxPoint x="230" y="540" />
              <mxPoint x="230" y="490" />
            </Array>
          </mxGeometry>
        </mxCell>
        <mxCell id="i7AbF4z14QXL7yocwgoT-1" value="1" style="edgeLabel;html=1;align=center;verticalAlign=middle;resizable=0;points=[];" parent="I1Eal8p1mosymjfn8M6k-183" vertex="1" connectable="0">
          <mxGeometry x="0.8348" y="1" relative="1" as="geometry">
            <mxPoint as="offset" />
          </mxGeometry>
        </mxCell>
        <mxCell id="I1Eal8p1mosymjfn8M6k-184" style="edgeStyle=orthogonalEdgeStyle;rounded=0;orthogonalLoop=1;jettySize=auto;html=1;entryX=1.02;entryY=0.717;entryDx=0;entryDy=0;shape=link;entryPerimeter=0;" parent="1" source="I1Eal8p1mosymjfn8M6k-180" target="I1Eal8p1mosymjfn8M6k-166" edge="1">
          <mxGeometry relative="1" as="geometry">
            <Array as="points">
              <mxPoint x="-65" y="649" />
            </Array>
          </mxGeometry>
        </mxCell>
        <mxCell id="I1Eal8p1mosymjfn8M6k-186" value="&lt;font style=&quot;font-size: 14px;&quot;&gt;M&lt;/font&gt;" style="edgeLabel;html=1;align=center;verticalAlign=middle;resizable=0;points=[];" parent="I1Eal8p1mosymjfn8M6k-184" vertex="1" connectable="0">
          <mxGeometry x="0.7412" y="-5" relative="1" as="geometry">
            <mxPoint y="6" as="offset" />
          </mxGeometry>
        </mxCell>
        <mxCell id="I1Eal8p1mosymjfn8M6k-180" value="maintain" style="shape=rhombus;perimeter=rhombusPerimeter;whiteSpace=wrap;html=1;align=center;" parent="1" vertex="1">
          <mxGeometry x="20" y="620" width="120" height="60" as="geometry" />
        </mxCell>
        <mxCell id="I1Eal8p1mosymjfn8M6k-192" style="edgeStyle=orthogonalEdgeStyle;rounded=0;orthogonalLoop=1;jettySize=auto;html=1;endArrow=none;endFill=0;shape=link;" parent="1" source="I1Eal8p1mosymjfn8M6k-189" target="FsIi4DqIfgX6PywUieRL-13" edge="1">
          <mxGeometry relative="1" as="geometry">
            <mxPoint x="-199.19999999999982" y="488.67999999999984" as="targetPoint" />
            <Array as="points">
              <mxPoint x="-200" y="413" />
              <mxPoint x="-354" y="413" />
              <mxPoint x="-354" y="59" />
              <mxPoint x="-235" y="59" />
            </Array>
          </mxGeometry>
        </mxCell>
        <mxCell id="I1Eal8p1mosymjfn8M6k-195" value="1" style="edgeLabel;html=1;align=center;verticalAlign=middle;resizable=0;points=[];" parent="I1Eal8p1mosymjfn8M6k-192" vertex="1" connectable="0">
          <mxGeometry x="0.8504" y="1" relative="1" as="geometry">
            <mxPoint as="offset" />
          </mxGeometry>
        </mxCell>
        <mxCell id="I1Eal8p1mosymjfn8M6k-193" style="edgeStyle=orthogonalEdgeStyle;rounded=0;orthogonalLoop=1;jettySize=auto;html=1;entryX=0.5;entryY=0;entryDx=0;entryDy=0;shape=link;" parent="1" source="I1Eal8p1mosymjfn8M6k-189" target="I1Eal8p1mosymjfn8M6k-166" edge="1">
          <mxGeometry relative="1" as="geometry" />
        </mxCell>
        <mxCell id="I1Eal8p1mosymjfn8M6k-197" value="M" style="edgeLabel;html=1;align=center;verticalAlign=middle;resizable=0;points=[];" parent="I1Eal8p1mosymjfn8M6k-193" vertex="1" connectable="0">
          <mxGeometry x="0.3138" y="-2" relative="1" as="geometry">
            <mxPoint as="offset" />
          </mxGeometry>
        </mxCell>
        <mxCell id="I1Eal8p1mosymjfn8M6k-189" value="has" style="shape=rhombus;perimeter=rhombusPerimeter;whiteSpace=wrap;html=1;align=center;" parent="1" vertex="1">
          <mxGeometry x="-260" y="485" width="120" height="60" as="geometry" />
        </mxCell>
        <mxCell id="I1Eal8p1mosymjfn8M6k-198" value="Loan" style="shape=ext;margin=3;double=1;whiteSpace=wrap;html=1;align=center;" parent="1" vertex="1">
          <mxGeometry x="-240" y="120" width="120" height="50" as="geometry" />
        </mxCell>
        <mxCell id="I1Eal8p1mosymjfn8M6k-199" value="&lt;span style=&quot;border-bottom: 1px dotted&quot;&gt;LoanNumber&lt;/span&gt;" style="ellipse;whiteSpace=wrap;html=1;align=center;" parent="1" vertex="1">
          <mxGeometry x="-340" y="65" width="100" height="40" as="geometry" />
        </mxCell>
        <mxCell id="FsIi4DqIfgX6PywUieRL-10" value="" style="edgeStyle=orthogonalEdgeStyle;rounded=0;orthogonalLoop=1;jettySize=auto;html=1;shape=link;" parent="1" source="FsIi4DqIfgX6PywUieRL-3" target="FsIi4DqIfgX6PywUieRL-6" edge="1">
          <mxGeometry relative="1" as="geometry" />
        </mxCell>
        <mxCell id="FsIi4DqIfgX6PywUieRL-3" value="&lt;font size=&quot;3&quot;&gt;User&lt;/font&gt;" style="rounded=0;whiteSpace=wrap;html=1;" parent="1" vertex="1">
          <mxGeometry x="-74.75" y="-413" width="120" height="60" as="geometry" />
        </mxCell>
        <mxCell id="FsIi4DqIfgX6PywUieRL-6" value="d" style="ellipse;whiteSpace=wrap;html=1;aspect=fixed;" parent="1" vertex="1">
          <mxGeometry x="-30" y="-295" width="30.5" height="30.5" as="geometry" />
        </mxCell>
        <mxCell id="FsIi4DqIfgX6PywUieRL-11" value="" style="endArrow=none;html=1;rounded=0;entryX=0.089;entryY=0.857;entryDx=0;entryDy=0;entryPerimeter=0;exitX=0.419;exitY=0.03;exitDx=0;exitDy=0;exitPerimeter=0;" parent="1" source="FsIi4DqIfgX6PywUieRL-13" target="FsIi4DqIfgX6PywUieRL-6" edge="1">
          <mxGeometry width="50" height="50" relative="1" as="geometry">
            <mxPoint x="-100" y="-214.5" as="sourcePoint" />
            <mxPoint x="-50" y="-264.5" as="targetPoint" />
          </mxGeometry>
        </mxCell>
        <mxCell id="FsIi4DqIfgX6PywUieRL-12" value="" style="endArrow=none;html=1;rounded=0;entryX=0.519;entryY=1.083;entryDx=0;entryDy=0;entryPerimeter=0;exitX=0.505;exitY=0.019;exitDx=0;exitDy=0;exitPerimeter=0;" parent="1" source="FsIi4DqIfgX6PywUieRL-14" target="FsIi4DqIfgX6PywUieRL-6" edge="1">
          <mxGeometry width="50" height="50" relative="1" as="geometry">
            <mxPoint x="-14" y="-177" as="sourcePoint" />
            <mxPoint x="-68" y="-236" as="targetPoint" />
          </mxGeometry>
        </mxCell>
        <mxCell id="FsIi4DqIfgX6PywUieRL-13" value="&lt;font size=&quot;3&quot;&gt;Customer&lt;/font&gt;" style="rounded=0;whiteSpace=wrap;html=1;" parent="1" vertex="1">
          <mxGeometry x="-295" y="-170" width="120" height="60" as="geometry" />
        </mxCell>
        <mxCell id="FsIi4DqIfgX6PywUieRL-14" value="&lt;font size=&quot;3&quot;&gt;Admin&lt;/font&gt;" style="rounded=0;whiteSpace=wrap;html=1;" parent="1" vertex="1">
          <mxGeometry x="-74.75" y="-230" width="120" height="60" as="geometry" />
        </mxCell>
        <mxCell id="FsIi4DqIfgX6PywUieRL-15" value="" style="endArrow=none;html=1;rounded=0;entryX=0.956;entryY=0.803;entryDx=0;entryDy=0;entryPerimeter=0;exitX=0.476;exitY=0.041;exitDx=0;exitDy=0;exitPerimeter=0;" parent="1" source="FsIi4DqIfgX6PywUieRL-16" target="FsIi4DqIfgX6PywUieRL-6" edge="1">
          <mxGeometry width="50" height="50" relative="1" as="geometry">
            <mxPoint x="177" y="-177" as="sourcePoint" />
            <mxPoint x="45.25" y="-263" as="targetPoint" />
          </mxGeometry>
        </mxCell>
        <mxCell id="FsIi4DqIfgX6PywUieRL-16" value="&lt;font size=&quot;3&quot;&gt;Employee&lt;/font&gt;" style="rounded=0;whiteSpace=wrap;html=1;" parent="1" vertex="1">
          <mxGeometry x="140" y="-170" width="120" height="60" as="geometry" />
        </mxCell>
        <mxCell id="FsIi4DqIfgX6PywUieRL-17" value="Name" style="ellipse;whiteSpace=wrap;html=1;" parent="1" vertex="1">
          <mxGeometry x="-100" y="-512.5" width="100" height="53" as="geometry" />
        </mxCell>
        <mxCell id="FsIi4DqIfgX6PywUieRL-18" value="FName" style="ellipse;whiteSpace=wrap;html=1;" parent="1" vertex="1">
          <mxGeometry x="-225" y="-562.5" width="100" height="50" as="geometry" />
        </mxCell>
        <mxCell id="FsIi4DqIfgX6PywUieRL-19" value="LName" style="ellipse;whiteSpace=wrap;html=1;" parent="1" vertex="1">
          <mxGeometry x="-120" y="-600" width="100" height="50" as="geometry" />
        </mxCell>
        <mxCell id="FsIi4DqIfgX6PywUieRL-21" value="" style="endArrow=none;html=1;rounded=0;entryX=0.471;entryY=0.013;entryDx=0;entryDy=0;entryPerimeter=0;" parent="1" source="FsIi4DqIfgX6PywUieRL-17" target="FsIi4DqIfgX6PywUieRL-3" edge="1">
          <mxGeometry width="50" height="50" relative="1" as="geometry">
            <mxPoint x="118" y="-245" as="sourcePoint" />
            <mxPoint x="168" y="-295" as="targetPoint" />
          </mxGeometry>
        </mxCell>
        <mxCell id="FsIi4DqIfgX6PywUieRL-22" value="" style="endArrow=none;html=1;rounded=0;entryX=1.006;entryY=0.761;entryDx=0;entryDy=0;entryPerimeter=0;exitX=0.048;exitY=0.152;exitDx=0;exitDy=0;exitPerimeter=0;" parent="1" source="FsIi4DqIfgX6PywUieRL-17" target="FsIi4DqIfgX6PywUieRL-18" edge="1">
          <mxGeometry width="50" height="50" relative="1" as="geometry">
            <mxPoint x="118" y="-245" as="sourcePoint" />
            <mxPoint x="168" y="-295" as="targetPoint" />
          </mxGeometry>
        </mxCell>
        <mxCell id="FsIi4DqIfgX6PywUieRL-23" value="" style="endArrow=none;html=1;rounded=0;entryX=0.418;entryY=0.979;entryDx=0;entryDy=0;entryPerimeter=0;exitX=0.32;exitY=-0.113;exitDx=0;exitDy=0;exitPerimeter=0;" parent="1" source="FsIi4DqIfgX6PywUieRL-17" target="FsIi4DqIfgX6PywUieRL-19" edge="1">
          <mxGeometry width="50" height="50" relative="1" as="geometry">
            <mxPoint y="-540" as="sourcePoint" />
            <mxPoint x="-59" y="-531" as="targetPoint" />
          </mxGeometry>
        </mxCell>
        <mxCell id="FsIi4DqIfgX6PywUieRL-24" value="City" style="ellipse;whiteSpace=wrap;html=1;" parent="1" vertex="1">
          <mxGeometry x="-531" y="-200" width="100" height="50" as="geometry" />
        </mxCell>
        <mxCell id="FsIi4DqIfgX6PywUieRL-25" value="BuildingNumber" style="ellipse;whiteSpace=wrap;html=1;" parent="1" vertex="1">
          <mxGeometry x="-500" y="-264.5" width="100" height="50" as="geometry" />
        </mxCell>
        <mxCell id="FsIi4DqIfgX6PywUieRL-26" value="Street" style="ellipse;whiteSpace=wrap;html=1;" parent="1" vertex="1">
          <mxGeometry x="-590" y="-80" width="100" height="50" as="geometry" />
        </mxCell>
        <mxCell id="FsIi4DqIfgX6PywUieRL-27" value="Country" style="ellipse;whiteSpace=wrap;html=1;" parent="1" vertex="1">
          <mxGeometry x="-600" y="-145" width="100" height="50" as="geometry" />
        </mxCell>
        <mxCell id="FsIi4DqIfgX6PywUieRL-28" value="Address" style="ellipse;whiteSpace=wrap;html=1;" parent="1" vertex="1">
          <mxGeometry x="-425" y="-150" width="100" height="50" as="geometry" />
        </mxCell>
        <mxCell id="FsIi4DqIfgX6PywUieRL-31" value="" style="endArrow=none;html=1;rounded=0;entryX=1;entryY=0.58;entryDx=0;entryDy=0;entryPerimeter=0;exitX=0.007;exitY=0.415;exitDx=0;exitDy=0;exitPerimeter=0;" parent="1" source="FsIi4DqIfgX6PywUieRL-28" target="FsIi4DqIfgX6PywUieRL-27" edge="1">
          <mxGeometry width="50" height="50" relative="1" as="geometry">
            <mxPoint x="67" y="-354" as="sourcePoint" />
            <mxPoint x="103" y="-401" as="targetPoint" />
          </mxGeometry>
        </mxCell>
        <mxCell id="FsIi4DqIfgX6PywUieRL-32" value="" style="endArrow=none;html=1;rounded=0;entryX=0.65;entryY=1.02;entryDx=0;entryDy=0;entryPerimeter=0;exitX=0.53;exitY=0.04;exitDx=0;exitDy=0;exitPerimeter=0;" parent="1" source="FsIi4DqIfgX6PywUieRL-28" target="FsIi4DqIfgX6PywUieRL-25" edge="1">
          <mxGeometry width="50" height="50" relative="1" as="geometry">
            <mxPoint x="126" y="-295" as="sourcePoint" />
            <mxPoint x="162" y="-342" as="targetPoint" />
          </mxGeometry>
        </mxCell>
        <mxCell id="FsIi4DqIfgX6PywUieRL-33" value="" style="endArrow=none;html=1;rounded=0;exitX=0.57;exitY=0.02;exitDx=0;exitDy=0;exitPerimeter=0;" parent="1" source="FsIi4DqIfgX6PywUieRL-28" target="FsIi4DqIfgX6PywUieRL-24" edge="1">
          <mxGeometry width="50" height="50" relative="1" as="geometry">
            <mxPoint x="185" y="-236" as="sourcePoint" />
            <mxPoint x="221" y="-283" as="targetPoint" />
          </mxGeometry>
        </mxCell>
        <mxCell id="FsIi4DqIfgX6PywUieRL-34" value="" style="endArrow=none;html=1;rounded=0;entryX=0.784;entryY=0.004;entryDx=0;entryDy=0;entryPerimeter=0;exitX=0.028;exitY=0.646;exitDx=0;exitDy=0;exitPerimeter=0;" parent="1" source="FsIi4DqIfgX6PywUieRL-28" target="FsIi4DqIfgX6PywUieRL-26" edge="1">
          <mxGeometry width="50" height="50" relative="1" as="geometry">
            <mxPoint x="244" y="-177" as="sourcePoint" />
            <mxPoint x="280" y="-224" as="targetPoint" />
          </mxGeometry>
        </mxCell>
        <mxCell id="FsIi4DqIfgX6PywUieRL-35" value="Email" style="ellipse;whiteSpace=wrap;html=1;align=center;" parent="1" vertex="1">
          <mxGeometry x="-225" y="-403" width="100" height="40" as="geometry" />
        </mxCell>
        <mxCell id="FsIi4DqIfgX6PywUieRL-36" value="Password" style="ellipse;whiteSpace=wrap;html=1;align=center;" parent="1" vertex="1">
          <mxGeometry x="75" y="-403" width="100" height="40" as="geometry" />
        </mxCell>
        <mxCell id="FsIi4DqIfgX6PywUieRL-37" value="" style="endArrow=none;html=1;rounded=0;exitX=0.87;exitY=0.85;exitDx=0;exitDy=0;exitPerimeter=0;" parent="1" source="FsIi4DqIfgX6PywUieRL-35" target="FsIi4DqIfgX6PywUieRL-3" edge="1">
          <mxGeometry width="50" height="50" relative="1" as="geometry">
            <mxPoint x="20" y="-401" as="sourcePoint" />
            <mxPoint x="41" y="-353" as="targetPoint" />
          </mxGeometry>
        </mxCell>
        <mxCell id="FsIi4DqIfgX6PywUieRL-38" value="" style="endArrow=none;html=1;rounded=0;exitX=-0.01;exitY=0.5;exitDx=0;exitDy=0;exitPerimeter=0;" parent="1" source="FsIi4DqIfgX6PywUieRL-36" target="FsIi4DqIfgX6PywUieRL-3" edge="1">
          <mxGeometry width="50" height="50" relative="1" as="geometry">
            <mxPoint x="-74" y="-390" as="sourcePoint" />
            <mxPoint y="-354" as="targetPoint" />
          </mxGeometry>
        </mxCell>
        <mxCell id="FsIi4DqIfgX6PywUieRL-39" value="" style="endArrow=none;html=1;rounded=0;entryX=1;entryY=0.44;entryDx=0;entryDy=0;entryPerimeter=0;exitX=-0.008;exitY=0.567;exitDx=0;exitDy=0;exitPerimeter=0;" parent="1" source="FsIi4DqIfgX6PywUieRL-13" target="FsIi4DqIfgX6PywUieRL-28" edge="1">
          <mxGeometry width="50" height="50" relative="1" as="geometry">
            <mxPoint x="-410" y="-120" as="sourcePoint" />
            <mxPoint x="-360" y="-170" as="targetPoint" />
          </mxGeometry>
        </mxCell>
        <mxCell id="FsIi4DqIfgX6PywUieRL-42" value="Phone" style="ellipse;whiteSpace=wrap;html=1;align=center;" parent="1" vertex="1">
          <mxGeometry x="-395" y="-264.5" width="100" height="40" as="geometry" />
        </mxCell>
        <mxCell id="FsIi4DqIfgX6PywUieRL-43" value="" style="endArrow=none;html=1;rounded=0;" parent="1" source="FsIi4DqIfgX6PywUieRL-13" target="FsIi4DqIfgX6PywUieRL-42" edge="1">
          <mxGeometry width="50" height="50" relative="1" as="geometry">
            <mxPoint x="-327" y="-141" as="sourcePoint" />
            <mxPoint x="-330" y="-170" as="targetPoint" />
          </mxGeometry>
        </mxCell>
        <mxCell id="FsIi4DqIfgX6PywUieRL-44" value="" style="endArrow=none;html=1;rounded=0;shape=link;exitX=0.495;exitY=0.978;exitDx=0;exitDy=0;exitPerimeter=0;entryX=0.534;entryY=0.049;entryDx=0;entryDy=0;entryPerimeter=0;" parent="1" source="FsIi4DqIfgX6PywUieRL-45" edge="1" target="I1Eal8p1mosymjfn8M6k-198">
          <mxGeometry x="1" width="50" height="50" relative="1" as="geometry">
            <mxPoint x="-175.8800000000001" y="58.90000000000009" as="sourcePoint" />
            <mxPoint x="-177" y="118" as="targetPoint" />
            <mxPoint as="offset" />
          </mxGeometry>
        </mxCell>
        <mxCell id="FsIi4DqIfgX6PywUieRL-46" value="M" style="edgeLabel;html=1;align=center;verticalAlign=middle;resizable=0;points=[];" parent="FsIi4DqIfgX6PywUieRL-44" vertex="1" connectable="0">
          <mxGeometry x="0.4744" y="1" relative="1" as="geometry">
            <mxPoint as="offset" />
          </mxGeometry>
        </mxCell>
        <mxCell id="FsIi4DqIfgX6PywUieRL-45" value="request" style="rhombus;whiteSpace=wrap;html=1;rounded=0;" parent="1" vertex="1">
          <mxGeometry x="-215" y="9" width="80" height="50" as="geometry" />
        </mxCell>
        <mxCell id="FsIi4DqIfgX6PywUieRL-47" value="" style="ellipse;whiteSpace=wrap;html=1;aspect=fixed;" parent="1" vertex="1">
          <mxGeometry x="-175" y="-125" width="10" height="10" as="geometry" />
        </mxCell>
        <mxCell id="FsIi4DqIfgX6PywUieRL-48" value="N" style="endArrow=none;html=1;rounded=0;exitX=0.962;exitY=0.66;exitDx=0;exitDy=0;exitPerimeter=0;" parent="1" source="FsIi4DqIfgX6PywUieRL-47" target="FsIi4DqIfgX6PywUieRL-45" edge="1">
          <mxGeometry x="-0.0956" width="50" height="50" relative="1" as="geometry">
            <mxPoint x="-135" y="-120" as="sourcePoint" />
            <mxPoint x="-135" as="targetPoint" />
            <mxPoint as="offset" />
            <Array as="points">
              <mxPoint x="-118" y="-118" />
              <mxPoint x="-118" />
              <mxPoint x="-177" />
            </Array>
          </mxGeometry>
        </mxCell>
        <mxCell id="FsIi4DqIfgX6PywUieRL-52" value="" style="endArrow=none;html=1;rounded=0;exitX=0.006;exitY=0.15;exitDx=0;exitDy=0;exitPerimeter=0;entryX=0.483;entryY=0.967;entryDx=0;entryDy=0;entryPerimeter=0;" parent="1" source="I1Eal8p1mosymjfn8M6k-26" target="I1Eal8p1mosymjfn8M6k-117" edge="1">
          <mxGeometry width="50" height="50" relative="1" as="geometry">
            <mxPoint x="134" y="439" as="sourcePoint" />
            <mxPoint x="120" y="240" as="targetPoint" />
            <Array as="points">
              <mxPoint x="120" y="439" />
              <mxPoint x="120" y="295" />
              <mxPoint x="56" y="295" />
            </Array>
          </mxGeometry>
        </mxCell>
        <mxCell id="29j81IlSqwF7sysXqsVi-1" value="1" style="edgeLabel;html=1;align=center;verticalAlign=middle;resizable=0;points=[];" parent="FsIi4DqIfgX6PywUieRL-52" vertex="1" connectable="0">
          <mxGeometry x="-0.7937" relative="1" as="geometry">
            <mxPoint as="offset" />
          </mxGeometry>
        </mxCell>
        <mxCell id="29j81IlSqwF7sysXqsVi-2" value="Salary" style="ellipse;whiteSpace=wrap;html=1;" parent="1" vertex="1">
          <mxGeometry x="214" y="-250" width="100" height="50" as="geometry" />
        </mxCell>
        <mxCell id="29j81IlSqwF7sysXqsVi-3" value="" style="endArrow=none;html=1;rounded=0;entryX=0.44;entryY=1.01;entryDx=0;entryDy=0;entryPerimeter=0;" parent="1" source="FsIi4DqIfgX6PywUieRL-16" target="29j81IlSqwF7sysXqsVi-2" edge="1">
          <mxGeometry width="50" height="50" relative="1" as="geometry">
            <mxPoint x="194" y="-125" as="sourcePoint" />
            <mxPoint x="196" y="-179" as="targetPoint" />
          </mxGeometry>
        </mxCell>
        <mxCell id="29j81IlSqwF7sysXqsVi-6" style="edgeStyle=orthogonalEdgeStyle;rounded=0;orthogonalLoop=1;jettySize=auto;html=1;shape=link;entryX=0.356;entryY=0.047;entryDx=0;entryDy=0;entryPerimeter=0;exitX=0.495;exitY=1.011;exitDx=0;exitDy=0;exitPerimeter=0;" parent="1" source="I1Eal8p1mosymjfn8M6k-127" target="I1Eal8p1mosymjfn8M6k-26" edge="1">
          <mxGeometry relative="1" as="geometry">
            <Array as="points">
              <mxPoint x="149" y="68" />
              <mxPoint x="149" y="68" />
              <mxPoint x="149" y="118" />
              <mxPoint x="177" y="118" />
              <mxPoint x="177" y="413" />
              <mxPoint x="237" y="413" />
            </Array>
            <mxPoint x="217.25" y="199" as="sourcePoint" />
            <mxPoint x="236" y="413" as="targetPoint" />
          </mxGeometry>
        </mxCell>
        <mxCell id="29j81IlSqwF7sysXqsVi-7" value="&lt;font style=&quot;font-size: 14px;&quot;&gt;1&lt;/font&gt;" style="edgeLabel;html=1;align=center;verticalAlign=middle;resizable=0;points=[];" parent="29j81IlSqwF7sysXqsVi-6" vertex="1" connectable="0">
          <mxGeometry x="0.7412" y="-5" relative="1" as="geometry">
            <mxPoint x="-2" y="-8" as="offset" />
          </mxGeometry>
        </mxCell>
        <mxCell id="29j81IlSqwF7sysXqsVi-8" value="" style="endArrow=none;html=1;rounded=0;exitX=0.502;exitY=0;exitDx=0;exitDy=0;exitPerimeter=0;entryX=0.312;entryY=1.031;entryDx=0;entryDy=0;entryPerimeter=0;" parent="1" source="I1Eal8p1mosymjfn8M6k-127" target="FsIi4DqIfgX6PywUieRL-16" edge="1">
          <mxGeometry width="50" height="50" relative="1" as="geometry">
            <mxPoint x="105.5" y="3" as="sourcePoint" />
            <mxPoint x="59" y="-59" as="targetPoint" />
            <Array as="points">
              <mxPoint x="149" y="-59" />
              <mxPoint x="177" y="-59" />
            </Array>
          </mxGeometry>
        </mxCell>
        <mxCell id="29j81IlSqwF7sysXqsVi-9" value="M" style="edgeLabel;html=1;align=center;verticalAlign=middle;resizable=0;points=[];" parent="29j81IlSqwF7sysXqsVi-8" vertex="1" connectable="0">
          <mxGeometry x="-0.6243" y="1" relative="1" as="geometry">
            <mxPoint as="offset" />
          </mxGeometry>
        </mxCell>
        <mxCell id="_2xyU4ahgMiA9Hih333Y-1" value="" style="endArrow=none;html=1;rounded=0;entryX=0.1;entryY=0.825;entryDx=0;entryDy=0;exitX=1.025;exitY=0.533;exitDx=0;exitDy=0;exitPerimeter=0;entryPerimeter=0;" parent="1" source="I1Eal8p1mosymjfn8M6k-5" target="_2xyU4ahgMiA9Hih333Y-2" edge="1">
          <mxGeometry width="50" height="50" relative="1" as="geometry">
            <mxPoint x="313" y="189" as="sourcePoint" />
            <mxPoint x="419" y="119" as="targetPoint" />
          </mxGeometry>
        </mxCell>
        <mxCell id="_2xyU4ahgMiA9Hih333Y-2" value="&lt;u&gt;Code&lt;/u&gt;" style="ellipse;whiteSpace=wrap;html=1;align=center;" parent="1" vertex="1">
          <mxGeometry x="364" y="90" width="100" height="40" as="geometry" />
        </mxCell>
        <mxCell id="_2xyU4ahgMiA9Hih333Y-3" value="" style="endArrow=none;html=1;rounded=0;exitX=0.979;exitY=0.523;exitDx=0;exitDy=0;exitPerimeter=0;entryX=0.017;entryY=0.59;entryDx=0;entryDy=0;entryPerimeter=0;" parent="1" source="FsIi4DqIfgX6PywUieRL-45" target="_2xyU4ahgMiA9Hih333Y-5" edge="1">
          <mxGeometry width="50" height="50" relative="1" as="geometry">
            <mxPoint x="-123" y="30" as="sourcePoint" />
            <mxPoint x="-118" y="59" as="targetPoint" />
          </mxGeometry>
        </mxCell>
        <mxCell id="_2xyU4ahgMiA9Hih333Y-5" value="Status" style="ellipse;whiteSpace=wrap;html=1;" parent="1" vertex="1">
          <mxGeometry x="-110" y="7" width="100" height="50" as="geometry" />
        </mxCell>
        <mxCell id="sgA8CUKs1tubCT4c3py2-1" value="&lt;u&gt;SSN&lt;/u&gt;" style="ellipse;whiteSpace=wrap;html=1;" parent="1" vertex="1">
          <mxGeometry x="20" y="-509.5" width="100" height="50" as="geometry" />
        </mxCell>
        <mxCell id="sgA8CUKs1tubCT4c3py2-2" value="" style="endArrow=none;html=1;rounded=0;exitX=0.736;exitY=-0.085;exitDx=0;exitDy=0;exitPerimeter=0;" parent="1" source="FsIi4DqIfgX6PywUieRL-3" target="sgA8CUKs1tubCT4c3py2-1" edge="1">
          <mxGeometry width="50" height="50" relative="1" as="geometry">
            <mxPoint x="20" y="-409" as="sourcePoint" />
            <mxPoint x="22.24251118540542" y="-462.50286911837134" as="targetPoint" />
          </mxGeometry>
        </mxCell>
        <mxCell id="kUGOANHnD88hTvexT_21-2" value="" style="endArrow=none;html=1;rounded=0;entryX=1.021;entryY=0.506;entryDx=0;entryDy=0;entryPerimeter=0;exitX=0.507;exitY=-0.052;exitDx=0;exitDy=0;exitPerimeter=0;" parent="1" source="kUGOANHnD88hTvexT_21-4" target="FsIi4DqIfgX6PywUieRL-13" edge="1">
          <mxGeometry width="50" height="50" relative="1" as="geometry">
            <mxPoint x="177" y="177" as="sourcePoint" />
            <mxPoint x="-208" y="-108" as="targetPoint" />
            <Array as="points">
              <mxPoint y="-140" />
            </Array>
          </mxGeometry>
        </mxCell>
        <mxCell id="kUGOANHnD88hTvexT_21-6" value="M" style="edgeLabel;html=1;align=center;verticalAlign=middle;resizable=0;points=[];" parent="kUGOANHnD88hTvexT_21-2" vertex="1" connectable="0">
          <mxGeometry x="0.7554" y="-2" relative="1" as="geometry">
            <mxPoint y="1" as="offset" />
          </mxGeometry>
        </mxCell>
        <mxCell id="kUGOANHnD88hTvexT_21-5" value="" style="endArrow=none;html=1;rounded=0;entryX=0.506;entryY=0.999;entryDx=0;entryDy=0;entryPerimeter=0;exitX=0.017;exitY=0.767;exitDx=0;exitDy=0;exitPerimeter=0;" parent="1" source="I1Eal8p1mosymjfn8M6k-5" target="kUGOANHnD88hTvexT_21-4" edge="1">
          <mxGeometry width="50" height="50" relative="1" as="geometry">
            <mxPoint x="196" y="176" as="sourcePoint" />
            <mxPoint x="-170" y="-143" as="targetPoint" />
            <Array as="points">
              <mxPoint x="118" y="177" />
              <mxPoint x="118" y="118" />
              <mxPoint y="118" />
              <mxPoint />
            </Array>
          </mxGeometry>
        </mxCell>
        <mxCell id="kUGOANHnD88hTvexT_21-4" value="has" style="shape=rhombus;perimeter=rhombusPerimeter;whiteSpace=wrap;html=1;align=center;" parent="1" vertex="1">
          <mxGeometry x="-60.75" y="-80" width="120" height="60" as="geometry" />
        </mxCell>
        <mxCell id="jt-CAGDn7kuWqMI64VTu-2" value="" style="endArrow=none;html=1;rounded=0;exitX=0.5;exitY=0.023;exitDx=0;exitDy=0;exitPerimeter=0;" edge="1" parent="1" source="jt-CAGDn7kuWqMI64VTu-3">
          <mxGeometry width="50" height="50" relative="1" as="geometry">
            <mxPoint x="-59" y="177" as="sourcePoint" />
            <mxPoint x="118" y="177" as="targetPoint" />
            <Array as="points">
              <mxPoint x="-70" y="177" />
            </Array>
          </mxGeometry>
        </mxCell>
        <mxCell id="jt-CAGDn7kuWqMI64VTu-3" value="has" style="shape=rhombus;perimeter=rhombusPerimeter;whiteSpace=wrap;html=1;align=center;" vertex="1" parent="1">
          <mxGeometry x="-130" y="190" width="120" height="60" as="geometry" />
        </mxCell>
        <mxCell id="jt-CAGDn7kuWqMI64VTu-4" value="" style="endArrow=none;html=1;rounded=0;exitX=0.023;exitY=0.536;exitDx=0;exitDy=0;exitPerimeter=0;entryX=0.773;entryY=1.023;entryDx=0;entryDy=0;entryPerimeter=0;" edge="1" parent="1" source="jt-CAGDn7kuWqMI64VTu-3" target="I1Eal8p1mosymjfn8M6k-198">
          <mxGeometry width="50" height="50" relative="1" as="geometry">
            <mxPoint x="-149" y="223" as="sourcePoint" />
            <mxPoint x="-250" y="257" as="targetPoint" />
          </mxGeometry>
        </mxCell>
        <mxCell id="jt-CAGDn7kuWqMI64VTu-5" value="M" style="edgeLabel;html=1;align=center;verticalAlign=middle;resizable=0;points=[];" vertex="1" connectable="0" parent="jt-CAGDn7kuWqMI64VTu-4">
          <mxGeometry x="0.7586" y="1" relative="1" as="geometry">
            <mxPoint as="offset" />
          </mxGeometry>
        </mxCell>
        <mxCell id="jt-CAGDn7kuWqMI64VTu-6" style="edgeStyle=orthogonalEdgeStyle;rounded=0;orthogonalLoop=1;jettySize=auto;html=1;endArrow=none;endFill=0;exitX=0.999;exitY=0.064;exitDx=0;exitDy=0;exitPerimeter=0;entryX=0.495;entryY=0.976;entryDx=0;entryDy=0;entryPerimeter=0;" edge="1" parent="1" source="I1Eal8p1mosymjfn8M6k-166" target="jt-CAGDn7kuWqMI64VTu-8">
          <mxGeometry relative="1" as="geometry">
            <mxPoint x="-59" y="354" as="targetPoint" />
            <Array as="points">
              <mxPoint x="-118" y="623" />
              <mxPoint x="-118" y="413" />
              <mxPoint x="-59" y="413" />
              <mxPoint x="-59" y="339" />
              <mxPoint x="-60" y="339" />
            </Array>
            <mxPoint x="-130" y="580" as="sourcePoint" />
          </mxGeometry>
        </mxCell>
        <mxCell id="jt-CAGDn7kuWqMI64VTu-7" value="M" style="edgeLabel;html=1;align=center;verticalAlign=middle;resizable=0;points=[];" vertex="1" connectable="0" parent="jt-CAGDn7kuWqMI64VTu-6">
          <mxGeometry x="0.8348" y="1" relative="1" as="geometry">
            <mxPoint y="48" as="offset" />
          </mxGeometry>
        </mxCell>
        <mxCell id="jt-CAGDn7kuWqMI64VTu-8" value="has" style="rhombus;whiteSpace=wrap;html=1;" vertex="1" parent="1">
          <mxGeometry x="-105" y="323" width="90" height="60" as="geometry" />
        </mxCell>
        <mxCell id="jt-CAGDn7kuWqMI64VTu-15" value="" style="endArrow=none;html=1;rounded=0;exitX=1.015;exitY=0.511;exitDx=0;exitDy=0;exitPerimeter=0;entryX=0.006;entryY=0.756;entryDx=0;entryDy=0;entryPerimeter=0;" edge="1" parent="1" source="jt-CAGDn7kuWqMI64VTu-8" target="I1Eal8p1mosymjfn8M6k-5">
          <mxGeometry width="50" height="50" relative="1" as="geometry">
            <mxPoint x="-59.99000000000001" y="339.0200000000002" as="sourcePoint" />
            <mxPoint x="169.31999999999994" y="157" as="targetPoint" />
            <Array as="points">
              <mxPoint x="151" y="354" />
              <mxPoint x="151" y="177" />
            </Array>
          </mxGeometry>
        </mxCell>
        <mxCell id="jt-CAGDn7kuWqMI64VTu-16" value="1" style="edgeLabel;html=1;align=center;verticalAlign=middle;resizable=0;points=[];" vertex="1" connectable="0" parent="jt-CAGDn7kuWqMI64VTu-15">
          <mxGeometry x="0.8543" relative="1" as="geometry">
            <mxPoint as="offset" />
          </mxGeometry>
        </mxCell>
      </root>
    </mxGraphModel>
  </diagram>
</mxfile>
